<?xml version="1.0" encoding="UTF-8" standalone="no"?>
<!DOCTYPE svg PUBLIC "-//W3C//DTD SVG 1.1//EN" "http://www.w3.org/Graphics/SVG/1.1/DTD/svg11.dtd">
<svg width="100%" height="100%" viewBox="0 0 256 256" version="1.1" xmlns="http://www.w3.org/2000/svg" xmlns:xlink="http://www.w3.org/1999/xlink" xml:space="preserve" xmlns:serif="http://www.serif.com/" style="fill-rule:evenodd;clip-rule:evenodd;stroke-linejoin:round;stroke-miterlimit:2;">
    <g transform="matrix(1,0,0,1,-2.31563,-0.189314)">
        <g>
            <g transform="matrix(1,0,0,1,0.132586,0)">
                <circle cx="30" cy="102" r="20"/>
            </g>
            <g transform="matrix(1,0,0,1,0.132586,52.3786)">
                <circle cx="30" cy="102" r="20"/>
            </g>
            <g transform="matrix(1,0,0,1,47.3391,25.3813)">
                <circle cx="30" cy="102" r="20"/>
            </g>
        </g>
        <g>
            <g transform="matrix(1,0,0,1,153.292,0)">
                <circle cx="30" cy="102" r="20" style="fill:rgb(255,0,0);"/>
            </g>
            <g transform="matrix(1,0,0,1,153.292,52.3786)">
                <circle cx="30" cy="102" r="20" style="fill:rgb(6,0,255);"/>
            </g>
            <g transform="matrix(1,0,0,1,200.499,25.3813)">
                <circle cx="30" cy="102" r="20" style="fill:rgb(31,196,0);"/>
            </g>
        </g>
        <g transform="matrix(1,0,0,1,-8.04485,2.13918)">
            <path d="M111.946,133.285L111.946,118.816L147.789,118.816L147.789,105.38L168.459,126.05L147.789,146.72L147.789,133.285L111.946,133.285Z"/>
        </g>
    </g>
</svg>
