<?xml version="1.0" encoding="UTF-8" standalone="no"?>
<!DOCTYPE svg PUBLIC "-//W3C//DTD SVG 1.1//EN" "http://www.w3.org/Graphics/SVG/1.1/DTD/svg11.dtd">
<svg width="100%" height="100%" viewBox="0 0 256 256" version="1.1" xmlns="http://www.w3.org/2000/svg" xmlns:xlink="http://www.w3.org/1999/xlink" xml:space="preserve" xmlns:serif="http://www.serif.com/" style="fill-rule:evenodd;clip-rule:evenodd;stroke-linejoin:round;stroke-miterlimit:2;">
    <g transform="matrix(1.14409,0,0,1.14409,-0.685389,-14.586)">
        <g transform="matrix(1,0,0,1,-35.3127,-19.8338)">
            <circle cx="82.683" cy="80.771" r="6.725" style="fill:rgb(0,198,5);"/>
        </g>
        <g transform="matrix(0.566623,0.823977,-0.823977,0.566623,194.526,-55.4121)">
            <circle cx="82.683" cy="80.771" r="6.725" style="fill:rgb(255,9,0);"/>
        </g>
        <g transform="matrix(-0.229051,0.973414,-0.973414,-0.229051,237.658,113.433)">
            <circle cx="82.683" cy="80.771" r="6.725" style="fill:rgb(11,0,255);"/>
        </g>
        <g transform="matrix(1,0,0,1,-44.2691,-38.1121)">
            <circle cx="82.683" cy="80.771" r="6.725" style="fill:rgb(0,198,5);"/>
        </g>
        <g transform="matrix(0.566623,0.823977,-0.823977,0.566623,204.512,-73.149)">
            <circle cx="82.683" cy="80.771" r="6.725" style="fill:rgb(255,9,0);"/>
        </g>
        <g transform="matrix(-0.229051,0.973414,-0.973414,-0.229051,257.502,108.901)">
            <circle cx="82.683" cy="80.771" r="6.725" style="fill:rgb(11,0,255);"/>
        </g>
        <g transform="matrix(1,0,0,1,-16.7995,-37.0396)">
            <circle cx="82.683" cy="80.771" r="6.725" style="fill:rgb(0,198,5);"/>
        </g>
        <g transform="matrix(0.566623,0.823977,-0.823977,0.566623,219.193,-49.9069)">
            <circle cx="82.683" cy="80.771" r="6.725" style="fill:rgb(255,9,0);"/>
        </g>
        <g transform="matrix(-0.229051,0.973414,-0.973414,-0.229051,250.166,135.395)">
            <circle cx="82.683" cy="80.771" r="6.725" style="fill:rgb(11,0,255);"/>
        </g>
        <g transform="matrix(1,0,0,1,-57.215,-30.3575)">
            <circle cx="82.683" cy="80.771" r="6.725" style="fill:rgb(0,198,5);"/>
        </g>
        <g transform="matrix(0.566623,0.823977,-0.823977,0.566623,190.786,-79.4221)">
            <circle cx="82.683" cy="80.771" r="6.725" style="fill:rgb(255,9,0);"/>
        </g>
        <g transform="matrix(-0.229051,0.973414,-0.973414,-0.229051,252.919,94.523)">
            <circle cx="82.683" cy="80.771" r="6.725" style="fill:rgb(11,0,255);"/>
        </g>
        <g transform="matrix(1,0,0,1,-56.7058,5.73879)">
            <circle cx="82.683" cy="80.771" r="6.725" style="fill:rgb(0,198,5);"/>
        </g>
        <g transform="matrix(0.566623,0.823977,-0.823977,0.566623,157.836,-66.3358)">
            <circle cx="82.683" cy="80.771" r="6.725" style="fill:rgb(255,9,0);"/>
        </g>
        <g transform="matrix(-0.229051,0.973414,-0.973414,-0.229051,221.079,78.9281)">
            <circle cx="82.683" cy="80.771" r="6.725" style="fill:rgb(11,0,255);"/>
        </g>
        <g transform="matrix(1,0,0,1,-31.4499,29.5475)">
            <circle cx="82.683" cy="80.771" r="6.725" style="fill:rgb(0,198,5);"/>
        </g>
        <g transform="matrix(0.566623,0.823977,-0.823977,0.566623,156.025,-24.2487)">
            <circle cx="82.683" cy="80.771" r="6.725" style="fill:rgb(255,9,0);"/>
        </g>
        <g transform="matrix(-0.229051,0.973414,-0.973414,-0.229051,188.705,105.882)">
            <circle cx="82.683" cy="80.771" r="6.725" style="fill:rgb(11,0,255);"/>
        </g>
        <g transform="matrix(1,0,0,1,-53.7256,24.7955)">
            <circle cx="82.683" cy="80.771" r="6.725" style="fill:rgb(0,198,5);"/>
        </g>
        <g transform="matrix(0.566623,0.823977,-0.823977,0.566623,147.319,-45.2959)">
            <circle cx="82.683" cy="80.771" r="6.725" style="fill:rgb(255,9,0);"/>
        </g>
        <g transform="matrix(-0.229051,0.973414,-0.973414,-0.229051,198.433,85.2868)">
            <circle cx="82.683" cy="80.771" r="6.725" style="fill:rgb(11,0,255);"/>
        </g>
        <g transform="matrix(1,0,0,1,-18.3311,-23.0237)">
            <circle cx="82.683" cy="80.771" r="6.725" style="fill:rgb(0,198,5);"/>
        </g>
        <g transform="matrix(0.566623,0.823977,-0.823977,0.566623,206.692,-38.809)">
            <circle cx="82.683" cy="80.771" r="6.725" style="fill:rgb(255,9,0);"/>
        </g>
        <g transform="matrix(-0.229051,0.973414,-0.973414,-0.229051,233.546,133.601)">
            <circle cx="82.683" cy="80.771" r="6.725" style="fill:rgb(11,0,255);"/>
        </g>
        <g transform="matrix(1,0,0,1,-14.6332,-6.27968)">
            <circle cx="82.683" cy="80.771" r="6.725" style="fill:rgb(0,198,5);"/>
        </g>
        <g transform="matrix(0.566623,0.823977,-0.823977,0.566623,198.852,-22.2151)">
            <circle cx="82.683" cy="80.771" r="6.725" style="fill:rgb(255,9,0);"/>
        </g>
        <g transform="matrix(-0.229051,0.973414,-0.973414,-0.229051,215.991,138.953)">
            <circle cx="82.683" cy="80.771" r="6.725" style="fill:rgb(11,0,255);"/>
        </g>
        <g transform="matrix(1,0,0,1,-39.8219,2.18338)">
            <circle cx="82.683" cy="80.771" r="6.725" style="fill:rgb(0,198,5);"/>
        </g>
        <g transform="matrix(0.566623,0.823977,-0.823977,0.566623,182.18,-38.515)">
            <circle cx="82.683" cy="80.771" r="6.725" style="fill:rgb(255,9,0);"/>
        </g>
        <g transform="matrix(-0.229051,0.973414,-0.973414,-0.229051,221.615,115.283)">
            <circle cx="82.683" cy="80.771" r="6.725" style="fill:rgb(11,0,255);"/>
        </g>
        <g transform="matrix(1,0,0,1,-54.8799,-9.55673)">
            <circle cx="82.683" cy="80.771" r="6.725" style="fill:rgb(0,198,5);"/>
        </g>
        <g transform="matrix(0.566623,0.823977,-0.823977,0.566623,174.583,-56.114)">
            <circle cx="82.683" cy="80.771" r="6.725" style="fill:rgb(255,9,0);"/>
        </g>
        <g transform="matrix(-0.229051,0.973414,-0.973414,-0.229051,218.631,97.2409)">
            <circle cx="82.683" cy="80.771" r="6.725" style="fill:rgb(11,0,255);"/>
        </g>
        <g transform="matrix(1,0,0,1,-19.8737,15.4988)">
            <circle cx="82.683" cy="80.771" r="6.725" style="fill:rgb(0,198,5);"/>
        </g>
        <g transform="matrix(0.566623,0.823977,-0.823977,0.566623,172.394,-24.1219)">
            <circle cx="82.683" cy="80.771" r="6.725" style="fill:rgb(255,9,0);"/>
        </g>
        <g transform="matrix(-0.229051,0.973414,-0.973414,-0.229051,199.615,118.085)">
            <circle cx="82.683" cy="80.771" r="6.725" style="fill:rgb(11,0,255);"/>
        </g>
        <g transform="matrix(1,0,0,1,4.16682,7.72245)">
            <circle cx="82.683" cy="80.771" r="6.725" style="fill:rgb(0,198,5);"/>
        </g>
        <g transform="matrix(0.566623,0.823977,-0.823977,0.566623,186.355,-13.8201)">
            <circle cx="82.683" cy="80.771" r="6.725" style="fill:rgb(255,9,0);"/>
        </g>
        <g transform="matrix(-0.229051,0.973414,-0.973414,-0.229051,201.375,135.346)">
            <circle cx="82.683" cy="80.771" r="6.725" style="fill:rgb(11,0,255);"/>
        </g>
        <g transform="matrix(1,0,0,1,4.1614,37.1314)">
            <circle cx="82.683" cy="80.771" r="6.725" style="fill:rgb(0,198,5);"/>
        </g>
        <g transform="matrix(0.566623,0.823977,-0.823977,0.566623,164.409,-2.60357)">
            <circle cx="82.683" cy="80.771" r="6.725" style="fill:rgb(255,9,0);"/>
        </g>
        <g transform="matrix(-0.229051,0.973414,-0.973414,-0.229051,178.318,126.64)">
            <circle cx="82.683" cy="80.771" r="6.725" style="fill:rgb(11,0,255);"/>
        </g>
        <g transform="matrix(1,0,0,1,4.63852,-21.9077)">
            <circle cx="82.683" cy="80.771" r="6.725" style="fill:rgb(0,198,5);"/>
        </g>
        <g transform="matrix(0.566623,0.823977,-0.823977,0.566623,218.872,-23.6683)">
            <circle cx="82.683" cy="80.771" r="6.725" style="fill:rgb(255,9,0);"/>
        </g>
        <g transform="matrix(-0.229051,0.973414,-0.973414,-0.229051,230.526,152.797)">
            <circle cx="82.683" cy="80.771" r="6.725" style="fill:rgb(11,0,255);"/>
        </g>
    </g>
</svg>
